<?xml version="1.0" encoding="UTF-8"?>
<svg width="20px" height="17px" viewBox="0 0 20 17" version="1.1" xmlns="http://www.w3.org/2000/svg" xmlns:xlink="http://www.w3.org/1999/xlink">
    <!-- Generator: Sketch 50.2 (55047) - http://www.bohemiancoding.com/sketch -->
    <title>chat (5) copy@3x</title>
    <desc>Created with Sketch.</desc>
    <defs></defs>
    <g id="Page-1" stroke="none" stroke-width="1" fill="none" fill-rule="evenodd">
        <g id="chat-(5)-copy" fill="#FFFFFF" fill-rule="nonzero">
            <path d="M11.9755556,0.000831111111 L1.7,0.000831111111 C0.759295556,0.000831111111 0,0.760126667 0,1.70083111 L0,8.50083111 C0,9.44146 0.759295556,10.2008311 1.7,10.2008311 L2.26666667,10.2008311 L2.26666667,11.9008311 C2.26666667,12.3102289 2.69057111,12.6067089 3.10533333,12.3994978 C3.11666667,12.3881644 3.13937111,12.3881644 3.15070444,12.3767933 C6.26797556,10.28636 5.56935111,10.7524622 6.26737111,10.29146 C6.358,10.2347933 6.46,10.2008311 6.57333333,10.2008311 L11.9755556,10.2008311 C12.91626,10.2008311 13.6755556,9.44146 13.6755556,8.50083111 L13.6755556,1.70083111 C13.6755556,0.760126667 12.91626,0.000831111111 11.9755556,0.000831111111 Z M7.44222222,6.80083111 L2.83333333,6.80083111 C2.08635333,6.80083111 2.08329333,5.66749778 2.83333333,5.66749778 L7.44222222,5.66749778 C8.18920222,5.66749778 8.19226222,6.80083111 7.44222222,6.80083111 Z M10.8422222,4.53416444 L2.83333333,4.53416444 C2.08635333,4.53416444 2.08329333,3.40083111 2.83333333,3.40083111 L10.8422222,3.40083111 C11.5892022,3.40083111 11.5922622,4.53416444 10.8422222,4.53416444 Z" id="Shape"></path>
            <path d="M17.6422222,4.53416444 L14.8088889,4.53416444 L14.8088889,8.50083111 C14.8088889,10.0648311 13.5395556,11.3341644 11.9755556,11.3341644 L6.74333333,11.3341644 L5.66666667,12.0481644 L5.66666667,13.0341644 C5.66666667,13.9747933 6.42596222,14.7341644 7.36666667,14.7341644 L12.9388511,14.7341644 L16.1915178,16.9101267 C16.6354822,17.1566267 17.0755556,16.85686 17.0755556,16.4341644 L17.0755556,14.7341644 L17.6422222,14.7341644 C18.5829267,14.7341644 19.3422222,13.9747933 19.3422222,13.0341644 L19.3422222,6.23416444 C19.3422222,5.29349778 18.5829267,4.53416444 17.6422222,4.53416444 Z" id="Shape"></path>
        </g>
    </g>
</svg>