<?xml version="1.0" encoding="UTF-8"?>
<svg width="17px" height="17px" viewBox="0 0 17 17" version="1.1" xmlns="http://www.w3.org/2000/svg" xmlns:xlink="http://www.w3.org/1999/xlink">
    <!-- Generator: Sketch 50.2 (55047) - http://www.bohemiancoding.com/sketch -->
    <title>clock (6)@3x</title>
    <desc>Created with Sketch.</desc>
    <defs></defs>
    <g id="Page-1" stroke="none" stroke-width="1" fill="none" fill-rule="evenodd">
        <g id="clock-(6)" fill="#FFFFFF" fill-rule="nonzero">
            <path d="M8.49983,0 C3.80556333,0 5.66666667e-05,3.80562 5.66666667e-05,8.49971667 C5.66666667e-05,13.1938133 3.80556333,16.9998867 8.49977333,16.9998867 C13.1939833,16.9998867 16.9997733,13.1939833 16.9997733,8.49971667 C16.9997733,3.80545 13.19404,0 8.49983,0 Z M9.08678333,9.53909667 C9.08633,9.56142333 9.08298667,9.58375 9.07987,9.60613333 C9.07766,9.62290667 9.07664,9.64007667 9.07284333,9.65656667 C9.06904667,9.67373667 9.06253,9.69068 9.05697667,9.70785 C9.05034667,9.72859 9.04417,9.74927333 9.0355,9.76882333 C9.03385667,9.77222333 9.03329,9.77585 9.03181667,9.77925 C9.01901,9.80656333 9.00416333,9.83217667 8.9879,9.85643 C8.98688,9.85790333 8.98552,9.85937667 8.9845,9.86085 C8.96597,9.88805 8.94483333,9.91275667 8.92262,9.93593333 C8.91644333,9.94228 8.91015333,9.94800333 8.90363667,9.95401 C8.88408667,9.97265333 8.86351667,9.98971 8.84164333,10.0052933 C8.8349,10.0101667 8.82844,10.0152667 8.82135667,10.01997 C8.79330667,10.03833 8.76389667,10.05448 8.73329667,10.06774 C8.72666667,10.0706867 8.71975333,10.0724433 8.71301,10.0751067 C8.68717,10.08508 8.66099,10.0933533 8.63396,10.0996433 C8.62427,10.1019667 8.61469333,10.1040633 8.60483333,10.10582 C8.57015333,10.1121667 8.53502,10.11653 8.49943333,10.11653 C8.49223667,10.11653 8.48487,10.11432 8.47767333,10.1140367 C8.44356,10.1127333 8.40978667,10.11007 8.37731667,10.1031567 C8.36717333,10.1009467 8.3572,10.0965267 8.34705667,10.09375 C8.31679667,10.0855333 8.28721667,10.07641 8.25899667,10.0637733 C8.25576667,10.06213 8.25236667,10.0618467 8.24913667,10.0603733 L4.98995333,8.52306333 C4.69630667,8.38462667 4.57050667,8.03425667 4.70894333,7.74061 C4.84738,7.44713333 5.19775,7.32116333 5.49139667,7.4596 L7.91197,8.60109333 L7.91197,3.52744333 C7.91197,3.2028 8.17518667,2.93958333 8.49983,2.93958333 C8.82447333,2.93958333 9.08769,3.2028 9.08769,3.52744333 L9.08769,9.5285 L9.08780333,9.5285 C9.08780333,9.53201333 9.08678333,9.53552667 9.08678333,9.53909667 Z" id="Shape"></path>
        </g>
    </g>
</svg>