<?xml version="1.0" encoding="UTF-8"?>
<svg width="14px" height="17px" viewBox="0 0 14 17" version="1.1" xmlns="http://www.w3.org/2000/svg" xmlns:xlink="http://www.w3.org/1999/xlink">
    <!-- Generator: Sketch 50.2 (55047) - http://www.bohemiancoding.com/sketch -->
    <title>Copy Copy 2@3x</title>
    <desc>Created with Sketch.</desc>
    <defs></defs>
    <g id="Page-1" stroke="none" stroke-width="1" fill="none" fill-rule="evenodd">
        <g id="Copy-Copy-2" fill="#FFFFFF">
            <path d="M9.18736423,12.6531417 L13.175,12.6531417 L13.175,12.803125 C13.175,13.1572934 13.0421888,13.4671862 12.7765625,13.7328125 C12.5109362,13.9984388 12.2010434,14.13125 11.846875,14.13125 L3.878125,14.13125 C3.52395656,14.13125 3.21406383,13.9984388 2.9484375,13.7328125 C2.68281117,13.4671862 2.55,13.1572934 2.55,12.803125 L2.55,1.646875 C2.55,1.29270656 2.68281117,0.982813828 2.9484375,0.7171875 C3.21406383,0.451561172 3.52395656,0.31875 3.878125,0.31875 L4.52824812,0.31875 L4.52824812,8.13541953 L9.18736423,12.6531417 Z" id="ion-android-document---Ionicons-Copy" transform="translate(7.862500, 7.225000) scale(-1, -1) translate(-7.862500, -7.225000) "></path>
            <g id="Group" transform="translate(0.000000, 2.550000)">
                <path d="M6.375,0 L10.625,4.25 L10.625,12.484375 C10.625,12.8385434 10.4921888,13.1484362 10.2265625,13.4140625 C9.96093617,13.6796888 9.65104344,13.8125 9.296875,13.8125 L1.328125,13.8125 C0.973956562,13.8125 0.664063828,13.6796888 0.3984375,13.4140625 C0.132811172,13.1484362 0,12.8385434 0,12.484375 L0,1.328125 C0,0.973956563 0.132811172,0.664063828 0.3984375,0.3984375 C0.664063828,0.132811172 0.973956562,0 1.328125,0 L6.375,0 Z M5.84375,4.78125 L9.5625,4.78125 L5.84375,1.0625 L5.84375,4.78125 Z" id="Combined-Shape"></path>
            </g>
        </g>
    </g>
</svg>