<?xml version="1.0" encoding="UTF-8"?>
<svg width="50px" height="50px" viewBox="0 0 50 50" version="1.1" xmlns="http://www.w3.org/2000/svg" xmlns:xlink="http://www.w3.org/1999/xlink">
    <!-- Generator: Sketch 50.2 (55047) - http://www.bohemiancoding.com/sketch -->
    <title>Open places@3x</title>
    <desc>Created with Sketch.</desc>
    <defs></defs>
    <g id="Page-1" stroke="none" stroke-width="1" fill="none" fill-rule="evenodd">
        <g id="Open-places" fill-rule="nonzero">
            <g id="Group" transform="translate(0.779727, 0.779727)">
                <path d="M0.888206628,4.21500975 L30.8297271,4.21500975 C31.2890838,4.21500975 31.6614035,4.5874269 31.6614035,5.04668616 L31.6614035,47.4638402 C31.6614035,47.9231969 31.2889864,48.2955166 30.8297271,48.2955166 L0.888206628,48.2955166 C0.428849903,48.2955166 0.0565302144,47.9231969 0.0565302144,47.4638402 L0.0565302144,5.04668616 C0.0565302144,4.58732943 0.428849903,4.21500975 0.888206628,4.21500975 Z" id="Shape" fill="#9AE3FF"></path>
                <path d="M0.888206628,4.21500975 L28.3346004,4.21500975 C28.7939571,4.21500975 29.1662768,4.5874269 29.1662768,5.04668616 L29.1662768,47.4638402 C29.1662768,47.9231969 28.7938596,48.2955166 28.3346004,48.2955166 L0.888206628,48.2955166 C0.428849903,48.2955166 0.0565302144,47.9231969 0.0565302144,47.4638402 L0.0565302144,5.04668616 C0.0565302144,4.58732943 0.428849903,4.21500975 0.888206628,4.21500975 Z" id="Shape" fill="#DBF5FF"></path>
                <path d="M4.21510721,7.54181287 L27.502924,7.54181287 C27.9622807,7.54181287 28.3346004,7.91413255 28.3346004,8.37348928 L28.3346004,44.1369396 C28.3346004,44.5962963 27.9621832,44.968616 27.502924,44.968616 L4.21510721,44.968616 C3.75575049,44.968616 3.3834308,44.5962963 3.3834308,44.1369396 L3.3834308,8.37348928 C3.38333333,7.91413255 3.75575049,7.54181287 4.21510721,7.54181287 Z" id="Shape" fill="#9AE3FF"></path>
                <path d="M4.21510721,7.54181287 L25.0077973,7.54181287 C25.467154,7.54181287 25.8394737,7.91413255 25.8394737,8.37348928 L25.8394737,44.1369396 C25.8394737,44.5962963 25.4670565,44.968616 25.0077973,44.968616 L4.21510721,44.968616 C3.75575049,44.968616 3.3834308,44.5962963 3.3834308,44.1369396 L3.3834308,8.37348928 C3.38333333,7.91413255 3.75575049,7.54181287 4.21510721,7.54181287 Z" id="Shape" fill="#DBF5FF"></path>
                <circle id="Oval" fill="#DBF5FF" cx="15.8589669" cy="18.3539961" r="6.6537037"></circle>
                <circle id="Oval" fill="#FFFFFF" cx="15.8589669" cy="17.5223197" r="2.49512671"></circle>
                <g transform="translate(10.818713, 0.000000)" fill="#DBF5FF" id="Shape">
                    <path d="M8.367154,22.8618908 L8.367154,24.1094542 C6.31091618,25.307115 3.76968811,25.307115 1.71345029,24.1094542 L1.71345029,22.8618908 C1.85614035,21.1625731 3.33947368,19.894347 5.04025341,20.0174464 C5.89775828,20.0055556 6.73070175,20.3038986 7.38567251,20.8575049 C7.99551657,21.3457115 8.35545809,22.0807992 8.367154,22.8618908 Z"></path>
                    <path d="M29.9915205,33.3081871 L37.2523392,45.7921053 C37.7108187,46.5875244 37.4437622,47.6037037 36.6535088,48.0709552 C36.3973684,48.2165692 36.1080897,48.2938596 35.8134503,48.2955166 C35.2209552,48.2988304 34.6719298,47.9846979 34.3745614,47.4721248 L27.1137427,34.9882066 L29.9915205,33.3081871 Z"></path>
                    <path d="M10.0305068,4.21500975 L10.0305068,7.54181287 C10.0291423,8.0005848 9.65760234,8.37222222 9.19883041,8.37348928 L0.881773879,8.37348928 C0.423001949,8.37212476 0.0513645224,8.0005848 0.0500974659,7.54181287 L0.0500974659,4.21500975 C0.0514619883,3.75623782 0.423001949,3.38460039 0.881773879,3.38333333 L2.69483431,3.38333333 C2.53050682,2.93898635 2.49883041,2.45643275 2.60350877,1.99434698 C2.88615984,0.754678363 4.05516569,-0.0747563353 5.31861598,0.0680311891 C6.58206628,0.210818713 7.53654971,1.28011696 7.53547758,2.55155945 C7.53723197,2.83567251 7.48645224,3.11764133 7.38586745,3.38323587 L9.19892788,3.38323587 C9.65760234,3.38460039 10.0292398,3.75614035 10.0305068,4.21500975 Z"></path>
                </g>
                <path d="M44.9688109,26.6711501 C44.9695906,29.3183236 43.9182261,31.8574074 42.0463938,33.7292398 C40.1745614,35.6010721 37.6354776,36.6523392 34.9883041,36.6516569 C34.5710526,36.6535088 34.1540936,36.625731 33.7407407,36.5685185 C28.7510721,35.9423977 25.0076998,31.7 25.0076998,26.6711501 C25.0076998,21.6423002 28.7510721,17.3999025 33.7407407,16.7737817 C34.1540936,16.7165692 34.5710526,16.6887914 34.9883041,16.6906433 C37.6354776,16.689961 40.1745614,17.7412281 42.0463938,19.6130604 C43.9182261,21.4848928 44.9694932,24.0238791 44.9688109,26.6711501 Z" id="Shape" fill="#9AE3FF"></path>
                <g transform="translate(24.951267, 16.764133)" fill="#DBF5FF" id="Oval">
                    <ellipse cx="8.78947368" cy="9.90701754" rx="8.73294347" ry="9.89736842"></ellipse>
                    <circle cx="10.037037" cy="9.90701754" r="6.6537037"></circle>
                </g>
            </g>
            <path d="M1.66793372,49.0752437 L4.16306043,49.0752437 C3.7042885,49.0738791 3.33265107,48.7023392 3.33138402,48.2435673 L3.33138402,5.82641326 C3.33274854,5.36764133 3.7042885,4.9960039 4.16306043,4.99473684 L1.66793372,4.99473684 C1.20916179,4.99610136 0.837524366,5.36764133 0.83625731,5.82641326 L0.83625731,48.2435673 C0.837621832,48.7023392 1.20916179,49.0739766 1.66793372,49.0752437 Z" id="Shape" fill="#FFFFFF"></path>
            <g id="Group">
                <polygon id="Shape" fill="#FFFFFF" points="1.66793372 5.82641326 1.66793372 16.6385965 1.66793372 48.2435673 0.00458089669 48.2435673 0.00458089669 16.6385965 0.00458089669 5.82641326"></polygon>
                <g fill="#00B5FA" id="Shape">
                    <path d="M0.83625731,13.3117934 C1.05643275,13.3084795 1.26725146,13.2223197 1.42680312,13.0705653 C1.74844055,12.7425926 1.74844055,12.2175439 1.42680312,11.8895712 L1.30214425,11.7896686 C1.25575049,11.7580897 1.20536062,11.732846 1.15224172,11.7145224 C1.10506823,11.6905458 1.05448343,11.6738791 1.00233918,11.6649123 C0.947465887,11.6555556 0.891910331,11.65 0.83625731,11.6482456 C0.616081871,11.6512671 0.405165692,11.7374269 0.245711501,11.8894737 C-0.0683235867,12.2205653 -0.0683235867,12.7394737 0.245711501,13.0704678 C0.325146199,13.145614 0.418226121,13.2048733 0.519883041,13.2451267 C0.619980507,13.2879142 0.72748538,13.3105263 0.83625731,13.3117934 Z"></path>
                    <path d="M1.66793372,49.9070175 L31.6094542,49.9070175 C32.5276803,49.9059454 33.2718324,49.1618908 33.2729045,48.2435673 L33.2729045,37.9608187 C35.1324561,38.41423 37.079922,38.3566277 38.9094542,37.7942495 L45.2530214,48.6679337 C45.7007797,49.43577 46.5230019,49.9076023 47.4118908,49.9070175 C47.8549708,49.9046784 48.2897661,49.7876218 48.6740741,49.567154 C49.8533138,48.8634503 50.251462,47.3447368 49.5691033,46.1530214 L43.2178363,35.2670565 C46.7722222,31.9084795 47.622807,26.5789474 45.2903509,22.2808967 C42.9578947,17.9827485 38.0260234,15.7912281 33.272807,16.9408382 L33.272807,5.82641326 C33.2717349,4.90818713 32.5276803,4.16403509 31.6093567,4.16296296 L22.2291423,4.16296296 C21.934308,3.65009747 21.3885965,3.33323587 20.797076,3.33128655 L19.9653996,3.33128655 C19.9665692,1.63323587 18.6893762,0.206530214 17.0015595,0.0202729045 C15.3137427,-0.165984405 13.7563353,0.948050682 13.387232,2.60555556 C13.3376218,2.84434698 13.3120858,3.0874269 13.3108187,3.33128655 L12.479922,3.33128655 C11.8884016,3.33323587 11.3426901,3.65019493 11.0478558,4.16296296 L1.66793372,4.16296296 C0.749707602,4.16403509 0.00555555556,4.90818713 0.00458089669,5.82641326 L0.00458089669,9.15321637 C0.00458089669,9.6125731 0.376998051,9.98489279 0.83625731,9.98489279 C1.29551657,9.98489279 1.66793372,9.61247563 1.66793372,9.15321637 L1.66793372,5.82641326 L10.8167641,5.82641326 L10.8167641,7.48986355 L4.99483431,7.48986355 C4.07660819,7.49093567 3.33245614,8.23499025 3.33138402,9.15331384 L3.33138402,44.9167641 C3.33245614,45.8349903 4.07651072,46.5791423 4.99483431,46.5802144 L28.2826511,46.5802144 C29.2008772,46.5791423 29.9450292,45.8350877 29.9461014,44.9167641 L29.9461014,36.547271 C30.4737817,36.8890838 31.0304094,37.1841131 31.6095517,37.4289474 L31.6095517,48.2435673 L1.66803119,48.2435673 L1.66803119,15.8069201 C1.66803119,15.3475634 1.29561404,14.9752437 0.836354776,14.9752437 C0.377095517,14.9752437 0.00467836257,15.3476608 0.00467836257,15.8069201 L0.00467836257,48.2435673 C0.00555555556,49.1617934 0.749707602,49.9059454 1.66793372,49.9070175 Z M48.1291423,46.9854776 C48.2821637,47.2424951 48.2859649,47.5617934 48.1389864,47.8224172 C47.9921053,48.0830409 47.7169591,48.2450292 47.4178363,48.2471735 C47.1187135,48.2493177 46.8413255,48.0911306 46.6907407,47.8326511 L40.4711501,37.17154 C40.9733918,36.930117 41.4563353,36.6501949 41.9154971,36.334308 L48.1291423,46.9854776 Z M44.9168616,27.4508772 C44.9168616,32.5036062 40.8207602,36.5997076 35.7680312,36.5997076 C30.7153021,36.5997076 26.6192008,32.5036062 26.6192008,27.4508772 C26.6192008,22.3981481 30.7153021,18.3020468 35.7680312,18.3020468 C40.8184211,18.3076998 44.9111111,22.4004873 44.9168616,27.4508772 Z M31.6094542,17.472807 C31.0303119,17.7176413 30.4737817,18.0126706 29.9460039,18.3544834 L29.9460039,9.15321637 C29.9449318,8.23499025 29.2008772,7.49083821 28.2825536,7.48976608 L22.4606238,7.48976608 L22.4606238,5.82641326 L31.6094542,5.82641326 L31.6094542,17.472807 Z M14.2930799,4.99473684 C14.5679337,4.99483431 14.8250487,4.85916179 14.980117,4.63226121 C15.1351852,4.40536062 15.1680312,4.11647173 15.0679337,3.86042885 C14.9634503,3.56929825 14.9448343,3.25419103 15.0143275,2.95272904 C15.2057505,2.12777778 15.9858674,1.57777778 16.827193,1.67465887 C17.6685185,1.77153996 18.3032164,2.48430799 18.3022417,3.33118908 C18.3038986,3.51325536 18.2719298,3.69395712 18.2079922,3.86442495 C18.1096491,4.12017544 18.1436647,4.4079922 18.2988304,4.63382066 C18.4539961,4.85964912 18.7104288,4.99463938 18.9845029,4.99463938 L20.7973684,4.99707602 L20.7973684,8.3214425 L12.4803119,8.3214425 L12.4803119,4.99473684 L14.2930799,4.99473684 Z M28.2826511,44.9167641 L4.99483431,44.9167641 L4.99483431,9.15321637 L11.0481481,9.15321637 C11.3429825,9.66608187 11.888694,9.98294347 12.4802144,9.98489279 L20.797271,9.98489279 C21.3887914,9.98294347 21.9345029,9.66598441 22.2293372,9.15321637 L28.2826511,9.15321637 L28.2826511,19.6667641 C26.1576998,21.698538 24.955848,24.5108187 24.955848,27.4507797 C24.955848,30.3907407 26.1577973,33.2030214 28.2826511,35.2347953 L28.2826511,44.9167641 Z"></path>
                    <path d="M16.638694,26.6191033 C20.7727096,26.6191033 24.1240741,23.2677388 24.1240741,19.1337232 C24.1240741,14.9997076 20.7727096,11.6483431 16.638694,11.6483431 C12.5046784,11.6483431 9.15331384,14.9997076 9.15331384,19.1337232 C9.1579922,23.2658869 12.5066277,26.614425 16.638694,26.6191033 Z M14.1435673,24.3858674 L14.1435673,23.6415205 C14.2916179,22.4048733 15.3987329,21.5118908 16.638694,21.6288499 C17.3011696,21.6170565 17.9452242,21.8466862 18.4507797,22.2749513 C18.8721248,22.6047758 19.1229045,23.1065302 19.1338207,23.6415205 L19.1338207,24.3858674 C17.5572125,25.1457115 15.7202729,25.1457115 14.1435673,24.3858674 Z M14.9753411,18.3020468 C14.9753411,17.3833333 15.720078,16.6385965 16.6387914,16.6385965 C17.5575049,16.6385965 18.3022417,17.3833333 18.3022417,18.3020468 C18.3022417,19.2207602 17.5575049,19.9654971 16.6387914,19.9654971 C15.7204678,19.964425 14.9763158,19.2202729 14.9753411,18.3020468 Z M16.638694,13.3117934 C18.9939571,13.3106238 21.1176413,14.7292398 22.0183236,16.9054581 C22.9190058,19.0816764 22.4191033,21.5862573 20.7519493,23.2499025 C20.6444444,22.3756335 20.2081871,21.5751462 19.5318713,21.0108187 C19.3670565,20.8712476 19.191423,20.7451267 19.0064327,20.6337232 C20.2931774,19.3307018 20.2850877,17.2327485 18.9883041,15.9397661 C17.6915205,14.6467836 15.5935673,14.6447368 14.294347,15.9353801 C12.9951267,17.2259259 12.9830409,19.3238791 14.2673489,20.6293372 C13.3168616,21.1907407 12.6751462,22.1559454 12.5251462,23.2496101 C10.8581871,21.5858674 10.3584795,19.081384 11.2592593,16.9053606 C12.160039,14.7293372 14.2836257,13.3106238 16.638694,13.3117934 Z"></path>
                    <path d="M14.9753411,29.9460039 C14.5159844,29.9460039 14.1436647,30.3183236 14.1436647,30.7776803 C14.1436647,31.237037 14.5160819,31.6093567 14.9753411,31.6093567 L18.3021442,31.6093567 C18.761501,31.6093567 19.1338207,31.237037 19.1338207,30.7776803 C19.1338207,30.3183236 18.761501,29.9460039 18.3021442,29.9460039 L14.9753411,29.9460039 Z"></path>
                    <path d="M9.15331384,34.9362573 L17.4703704,34.9362573 C17.9297271,34.9362573 18.3020468,34.5639376 18.3020468,34.1045809 C18.3020468,33.6452242 17.9296296,33.2729045 17.4703704,33.2729045 L9.15331384,33.2729045 C8.69395712,33.2729045 8.32163743,33.6452242 8.32163743,34.1045809 C8.32163743,34.5639376 8.69395712,34.9362573 9.15331384,34.9362573 Z"></path>
                    <path d="M24.1240741,33.272807 L20.797271,33.272807 C20.3379142,33.272807 19.9655945,33.6451267 19.9655945,34.1044834 C19.9655945,34.5638402 20.3380117,34.9361598 20.797271,34.9361598 L24.1240741,34.9361598 C24.5834308,34.9361598 24.9557505,34.5638402 24.9557505,34.1044834 C24.9557505,33.6451267 24.5834308,33.272807 24.1240741,33.272807 Z"></path>
                    <path d="M17.4704678,39.9265107 L9.15331384,39.9265107 C8.69395712,39.9265107 8.32163743,40.2989279 8.32163743,40.7581871 C8.32163743,41.2175439 8.69405458,41.5898635 9.15331384,41.5898635 L17.4703704,41.5898635 C17.9297271,41.5898635 18.3020468,41.2174464 18.3020468,40.7581871 C18.3021442,40.2988304 17.9297271,39.9265107 17.4704678,39.9265107 Z"></path>
                    <path d="M24.1240741,39.9265107 L20.797271,39.9265107 C20.3379142,39.9265107 19.9655945,40.2989279 19.9655945,40.7581871 C19.9655945,41.2175439 20.3380117,41.5898635 20.797271,41.5898635 L24.1240741,41.5898635 C24.5834308,41.5898635 24.9557505,41.2174464 24.9557505,40.7581871 C24.955848,40.2988304 24.5834308,39.9265107 24.1240741,39.9265107 Z"></path>
                    <path d="M24.1240741,36.5996101 L15.8070175,36.5996101 C15.3476608,36.5996101 14.9753411,36.9719298 14.9753411,37.4312865 C14.9753411,37.8906433 15.3476608,38.262963 15.8070175,38.262963 L24.1240741,38.262963 C24.5834308,38.262963 24.9557505,37.8905458 24.9557505,37.4312865 C24.9557505,36.9720273 24.5834308,36.5996101 24.1240741,36.5996101 Z"></path>
                    <path d="M9.15331384,38.2630604 L12.480117,38.2630604 C12.9394737,38.2630604 13.3117934,37.8906433 13.3117934,37.431384 C13.3117934,36.9721248 12.9393762,36.5997076 12.480117,36.5997076 L9.15331384,36.5997076 C8.69395712,36.5997076 8.32163743,36.9720273 8.32163743,37.431384 C8.32163743,37.8907407 8.69395712,38.2630604 9.15331384,38.2630604 Z"></path>
                    <path d="M35.7680312,34.9362573 C39.9020468,34.9362573 43.2534113,31.5848928 43.2534113,27.4508772 C43.2534113,23.3168616 39.9020468,19.9654971 35.7680312,19.9654971 C31.6340156,19.9654971 28.2826511,23.3168616 28.2826511,27.4508772 C28.2873294,31.5829435 31.6358674,34.9315789 35.7680312,34.9362573 Z M35.7680312,21.6288499 C38.9834308,21.6288499 41.589961,24.2354776 41.589961,27.4507797 C41.589961,30.6660819 38.9833333,33.2727096 35.7680312,33.2727096 C32.552729,33.2727096 29.9461014,30.6660819 29.9461014,27.4507797 C29.9498051,24.237037 32.554191,21.6326511 35.7680312,21.6288499 Z"></path>
                </g>
            </g>
        </g>
    </g>
</svg>