<?xml version="1.0" encoding="UTF-8"?>
<svg width="50px" height="50px" viewBox="0 0 50 50" version="1.1" xmlns="http://www.w3.org/2000/svg" xmlns:xlink="http://www.w3.org/1999/xlink">
    <!-- Generator: Sketch 50.2 (55047) - http://www.bohemiancoding.com/sketch -->
    <title>Proj with no hoours@3x</title>
    <desc>Created with Sketch.</desc>
    <defs></defs>
    <g id="Page-1" stroke="none" stroke-width="1" fill="none" fill-rule="evenodd">
        <g id="Proj-with-no-hoours" fill-rule="nonzero">
            <g id="Group" transform="translate(0.781250, 0.781250)">
                <path d="M40.0520508,0.885449219 L40.0520508,31.71875 L8.38544922,31.71875 L8.38544922,0.885449219 C8.38681641,0.42578125 8.75908203,0.0534179688 9.21875,0.0521484375 L39.21875,0.0521484375 C39.678418,0.0534179687 40.0507812,0.425683594 40.0520508,0.885449219 Z" id="Shape" fill="#9AE3FF"></path>
                <g transform="translate(8.300781, 0.000000)" fill="#DBF5FF" id="Shape">
                    <path d="M29.2512695,0.885449219 L29.2512695,31.71875 L0.0846679688,31.71875 L0.0846679688,0.885449219 C0.0860351563,0.42578125 0.458300781,0.0534179688 0.91796875,0.0521484375 L28.4179687,0.0521484375 C28.8776367,0.0534179687 29.25,0.425683594 29.2512695,0.885449219 Z"></path>
                    <path d="M31.5512695,0.352050781 L25.5762695,9.31035156 C25.2697266,9.775 24.7496094,10.0538086 24.1929687,10.0520508 L7.64296875,10.0520508 C7.08632813,10.0539063 6.56621094,9.775 6.25966797,9.31035156 L0.284667969,0.352050781 C0.439453125,0.161328125 0.672363281,0.0510742188 0.91796875,0.0520507813 L30.9179687,0.0520507813 C31.1635742,0.0510742188 31.3964844,0.161425781 31.5512695,0.352050781 Z"></path>
                </g>
                <path d="M48.3854492,29.21875 L48.3854492,45.0520508 C48.3856445,45.9361328 48.0345703,46.7841797 47.409375,47.409375 C46.7841797,48.0345703 45.9362305,48.3856445 45.0520508,48.3854492 L3.38544922,48.3854492 C2.50136719,48.3856445 1.65332031,48.0345703 1.028125,47.409375 C0.402929687,46.7841797 0.0518554688,45.9362305 0.0520507813,45.0520508 L0.0520507813,29.21875 C0.0534179688,28.759082 0.425683594,28.3867187 0.885351563,28.3854492 L47.5520508,28.3854492 C48.0118164,28.3867187 48.384082,28.759082 48.3854492,29.21875 Z" id="Shape" fill="#9AE3FF"></path>
                <path d="M45.8854492,29.21875 L45.8854492,45.0520508 C45.8856445,45.9361328 45.5345703,46.7841797 44.909375,47.409375 C44.2841797,48.0345703 43.4362305,48.3856445 42.5520508,48.3854492 L3.38544922,48.3854492 C2.50136719,48.3856445 1.65332031,48.0345703 1.028125,47.409375 C0.402929687,46.7841797 0.0518554688,45.9362305 0.0520507813,45.0520508 L0.0520507813,29.21875 C0.0534179688,28.759082 0.425683594,28.3867187 0.885351563,28.3854492 L45.0520508,28.3854492 C45.5118164,28.3867187 45.884082,28.759082 45.8854492,29.21875 Z" id="Shape" fill="#DBF5FF"></path>
                <path d="M15.0520508,32.5520508 L33.3853516,32.5520508 C33.8456055,32.5520508 34.2186523,32.9251953 34.2186523,33.3853516 L34.2186523,36.71875 C34.2186523,37.1790039 33.8455078,37.5520508 33.3853516,37.5520508 L15.0520508,37.5520508 C14.5917969,37.5520508 14.21875,37.1790039 14.21875,36.71875 L14.21875,33.3854492 C14.21875,32.9251953 14.5918945,32.5520508 15.0520508,32.5520508 Z" id="Shape" fill="#DBF5FF"></path>
                <g transform="translate(22.460938, 3.320312)" fill="#FFFFFF" id="Oval">
                    <circle cx="1.7578125" cy="1.73173828" r="1.66669922"></circle>
                    <circle cx="1.7578125" cy="11.7317383" r="1.66669922"></circle>
                </g>
                <g fill="#FFFFFF" id="Shape">
                    <path d="M3.38544922,48.3854492 L5.88544922,48.3854493 C5.00136719,48.3856445 4.15332031,48.0345703 3.528125,47.409375 C2.90292969,46.7841797 2.55185547,45.9362305 2.55205078,45.0520508 L2.55205078,29.21875 C2.55341797,28.759082 2.92568359,28.3867187 3.38535156,28.3854492 L0.885351562,28.3854492 C0.425683594,28.3868164 0.0533203125,28.759082 0.0520507812,29.21875 L0.0520507812,45.0520508 C0.0518554687,45.9361328 0.402929687,46.7841797 1.028125,47.409375 C1.65332031,48.0345703 2.50126953,48.3856445 3.38544922,48.3854492 Z"></path>
                    <path d="M10.8854492,0.885449219 C10.8884766,0.690917969 10.9607422,0.503808594 11.0891602,0.357714844 L11.0854492,0.352148437 C11.0898438,0.346777344 11.0970703,0.344628906 11.1015625,0.339453125 C11.1589844,0.277539062 11.2254883,0.224707031 11.2989258,0.183007812 C11.3241211,0.163671875 11.3504883,0.145800781 11.377832,0.1296875 C11.4845703,0.0795898437 11.6008789,0.053125 11.7188477,0.0521484375 L9.21884766,0.0521484375 C9.10097656,0.053125 8.98457031,0.0795898437 8.87783203,0.1296875 C8.85048828,0.145800781 8.82412109,0.163671875 8.79892578,0.183007812 C8.72548828,0.224707031 8.65898437,0.277539062 8.6015625,0.339453125 C8.59707031,0.344628906 8.58984375,0.346777344 8.58544922,0.352148437 L8.58916016,0.357714844 C8.46074219,0.503808594 8.38847656,0.690917969 8.38544922,0.885449219 L8.38544922,28.3854492 L10.8854492,28.3854492 L10.8854492,0.885449219 Z"></path>
                </g>
            </g>
            <g id="Group">
                <polygon id="Shape" fill="#FFFFFF" points="8.33330078 29.1666992 8.33330078 18.3333008 8.33330078 1.66669922 10 1.66669922 10 18.3333008 10 29.1666992"></polygon>
                <g id="Shape">
                    <path d="M48.3333008,28.3333008 L41.6666016,28.3333008 L41.6666016,1.66669922 C41.6654297,0.746679688 40.9200195,0.001171875 40,0 L10,0 C9.07998047,0.001171875 8.33457031,0.746679688 8.33330078,1.66669922 L8.33330078,19.1666992 C8.33330078,19.6269531 8.70644531,20 9.16660156,20 C9.62685547,20 9.99990234,19.6268555 9.99990234,19.1666992 L9.99990234,3.58466797 L14.6466797,10.5517578 C15.1076172,11.2496094 15.8887695,11.6686523 16.7250977,11.6666992 L24.1665039,11.6666992 L24.1665039,13.4870117 C23.0185547,13.8928711 22.3299805,15.0666992 22.5358398,16.2667969 C22.7416992,17.4668945 23.7822266,18.344043 24.9998047,18.344043 C26.2173828,18.344043 27.2579102,17.4668945 27.4637695,16.2667969 C27.6696289,15.0666992 26.9810547,13.8928711 25.8331055,13.4870117 L25.8331055,11.6666992 L33.2745117,11.6666992 C34.1098633,11.6689453 34.890332,11.2508789 35.3513672,10.5541992 L39.9998047,3.58476562 L39.9998047,28.3333984 L10,28.3333984 L10,25.8333984 C10,25.3731445 9.62685547,25.0000977 9.16669922,25.0000977 C8.70644531,25.0000977 8.33339844,25.3732422 8.33339844,25.8333984 L8.33339844,28.3333984 L1.66669922,28.3333984 C0.746679688,28.3345703 0.001171875,29.0799805 0,30 L0,45.8333008 C0.002734375,48.1333984 1.86660156,49.9972656 4.16669922,50 L45.8333984,50 C48.1334961,49.9972656 49.9973633,48.1333984 50.0000977,45.8333008 L50.0000977,30 C49.9988281,29.0799805 49.2533203,28.3345703 48.3333008,28.3333008 Z M25,16.6666992 C24.5397461,16.6666992 24.1666992,16.2935547 24.1666992,15.8333984 C24.1666992,15.3731445 24.5398437,15.0000977 25,15.0000977 C25.4602539,15.0000977 25.8333008,15.3732422 25.8333008,15.8333984 C25.8330078,16.293457 25.4601563,16.6664062 25,16.6666992 Z M33.9631836,9.63212891 C33.8103516,9.86289062 33.5514648,10.0011719 33.274707,10 L25.8333008,10 L25.8333008,8.1796875 C26.98125,7.77382812 27.6698242,6.6 27.4639648,5.39990234 C27.2581055,4.19990234 26.2175781,3.32265625 25,3.32265625 C23.7824219,3.32265625 22.7418945,4.19980469 22.5360352,5.39990234 C22.3301758,6.6 23.01875,7.77382812 24.1666992,8.1796875 L24.1666992,10 L16.725293,10 C16.4475586,10.0009766 16.1879883,9.86171875 16.0351562,9.6296875 L10.7240234,1.66660156 L39.2759766,1.66660156 L33.9631836,9.63212891 Z M25,6.66669922 C24.5397461,6.66669922 24.1666992,6.29355469 24.1666992,5.83339844 C24.1666992,5.37324219 24.5397461,5 25,5 C25.4602539,5 25.8333008,5.37314453 25.8333008,5.83330078 C25.8330078,6.29345703 25.4601563,6.66640625 25,6.66669922 Z M48.3333008,45.8333008 C48.3318359,47.2133789 47.2133789,48.3318359 45.8333008,48.3333008 L4.16669922,48.3333008 C2.78662109,48.3318359 1.66816406,47.2133789 1.66669922,45.8333008 L1.66669922,30 L48.3333984,30 L48.3333984,45.8333008 L48.3333008,45.8333008 Z" fill="#00B5FA"></path>
                    <path d="M8.85009766,23.2669922 C8.89736328,23.2910156 8.94794922,23.3077148 9.00019531,23.3166016 C9.05517578,23.3259766 9.11083984,23.331543 9.16660156,23.3333008 C9.38720703,23.3302734 9.59853516,23.2439453 9.75830078,23.0916016 C9.96044922,22.896875 10.0492187,22.6123047 9.99355469,22.3371094 C9.93789062,22.0619141 9.74560547,21.8342773 9.48359375,21.7333008 C9.38330078,21.6905273 9.27558594,21.6678711 9.16660156,21.6665039 C8.8296875,21.6678711 8.52636719,21.8711914 8.39716797,22.1823242 C8.26796875,22.4935547 8.33798828,22.8518555 8.57490234,23.0915039 L8.69980469,23.1916016 C8.74638672,23.2234375 8.796875,23.2487305 8.85009766,23.2669922 Z" fill="#428DFF"></path>
                    <path d="M34.1666992,32.5 L15.8333008,32.5 C14.9132813,32.5011719 14.1678711,33.2466797 14.1666016,34.1666992 L14.1666016,37.5 C14.1677734,38.4200195 14.9132812,39.1654297 15.8333008,39.1666992 L34.1666016,39.1666992 C35.0866211,39.1655273 35.8320312,38.4200195 35.8333008,37.5 L35.8333008,34.1666992 C35.8321289,33.2466797 35.0866211,32.5011719 34.1666992,32.5 Z M15.8333008,37.5 L15.8333008,34.1666992 L34.1666016,34.1666992 L34.1683594,37.5 L15.8333008,37.5 Z" fill="#00B5FA"></path>
                </g>
            </g>
        </g>
    </g>
</svg>