<?xml version="1.0" encoding="UTF-8"?>
<svg width="50px" height="50px" viewBox="0 0 50 50" version="1.1" xmlns="http://www.w3.org/2000/svg" xmlns:xlink="http://www.w3.org/1999/xlink">
    <!-- Generator: Sketch 50.2 (55047) - http://www.bohemiancoding.com/sketch -->
    <title>Projects@3x</title>
    <desc>Created with Sketch.</desc>
    <defs></defs>
    <g id="Page-1" stroke="none" stroke-width="1" fill="none" fill-rule="evenodd">
        <g id="Projects" fill-rule="nonzero">
            <g id="Group" transform="translate(0.781250, 0.781250)">
                <path d="M48.3356445,26.16875 L40.6023438,47.8354492 C40.478125,48.165332 40.1630859,48.3841797 39.8106445,48.3854492 L0.0522460938,48.3854492 L0.0522460938,17.5520508 C0.0536132813,17.0923828 0.425878906,16.7200195 0.885546875,16.71875 L40.0522461,16.71875 C40.971582,16.7213867 41.7162109,17.4660156 41.7189453,18.3854492 L41.7189453,25.0521484 L47.5522461,25.0521484 C47.8231445,25.0538086 48.0765625,25.1865234 48.2321289,25.4083008 C48.3876953,25.6300781 48.4262695,25.9134766 48.3356445,26.16875 Z" id="Shape" fill="#9AE3FF"></path>
                <g transform="translate(0.000000, 16.699219)" fill="#DBF5FF" id="Shape">
                    <path d="M45.8356445,9.46953125 L38.1023437,31.1362305 C37.978125,31.4661133 37.6630859,31.6849609 37.3106445,31.6862305 L0.0522460938,31.6862305 L0.0522460938,0.852832031 C0.0536132813,0.393164063 0.425878906,0.0208007812 0.885546875,0.01953125 L37.5522461,0.01953125 C38.471582,0.0221679688 39.2162109,0.766796875 39.2189453,1.68623047 L39.2189453,8.35292969 L45.0522461,8.35292969 C45.3231445,8.35458984 45.5765625,8.48730469 45.7321289,8.70908203 C45.8876953,8.93085938 45.9262695,9.21425781 45.8356445,9.46953125 Z"></path>
                    <path d="M41.7189453,0.852832031 L41.7189453,8.35283203 L8.38564453,8.35283203 L8.38564453,0.01953125 L40.8856445,0.01953125 C41.3453125,0.0208984375 41.7175781,0.393164063 41.7189453,0.852832031 Z"></path>
                    <path d="M8.38564453,0.01953125 L8.38564453,8.35283203 L4.06894531,9.06953125 C3.67431641,9.13828125 3.2875,8.91318359 3.15224609,8.53623047 L0.0522460938,0.01953125 L8.38564453,0.01953125 Z"></path>
                    <path d="M8.38564453,8.35283203 L0.0522460938,31.6862305 L0.0522460938,0.01953125 L3.15224609,8.53623047 C3.2875,8.91328125 3.67431641,9.13828125 4.06894531,9.06953125 L8.38564453,8.35283203 Z"></path>
                </g>
                <g transform="translate(8.300781, 0.000000)" fill="#9AE3FF">
                    <circle id="Oval" cx="10.0848633" cy="30.8854492" r="2.5"></circle>
                    <circle id="Oval" cx="25.0848633" cy="30.8854492" r="2.5"></circle>
                    <path d="M21.7514648,0.885449219 L21.7514648,25.0521484 L0.0848632812,25.0521484 L0.0848632812,0.885449219 C0.0862304687,0.42578125 0.458496094,0.0534179688 0.918164062,0.0521484375 L20.9181641,0.0521484375 C21.377832,0.0534179687 21.7501953,0.425683594 21.7514648,0.885449219 Z" id="Shape"></path>
                </g>
                <path d="M34.2189453,5.05205078 L34.2189453,25.0520508 L12.5522461,25.0520508 L12.5522461,5.05205078 C12.5536133,4.59238281 12.9258789,4.22001953 13.3855469,4.21875 L33.3855469,4.21875 C33.8453125,4.22011719 34.2175781,4.59238281 34.2189453,5.05205078 Z" id="Shape" fill="#9AE3FF"></path>
                <path d="M38.3856445,9.21875 L38.3856445,25.0520508 L16.7189453,25.0520508 L16.7189453,9.21875 C16.7203125,8.75908203 17.0925781,8.38671875 17.5522461,8.38544922 L37.5522461,8.38544922 C38.0120117,8.38671875 38.3842773,8.75908203 38.3856445,9.21875 Z" id="Shape" fill="#9AE3FF"></path>
                <path d="M27.5522461,0.885449219 L27.5522461,25.0521484 L8.38564453,25.0521484 L8.38564453,0.885449219 C8.38701172,0.42578125 8.75927734,0.0534179688 9.21894531,0.0521484375 L26.7189453,0.0521484375 C27.1786133,0.0534179687 27.5509766,0.425683594 27.5522461,0.885449219 Z" id="Shape" fill="#DBF5FF"></path>
                <path d="M31.7189453,5.05205078 L31.7189453,25.0520508 L12.5522461,25.0520508 L12.5522461,5.05205078 C12.5536133,4.59238281 12.9258789,4.22001953 13.3855469,4.21875 L30.8855469,4.21875 C31.3453125,4.22011719 31.7175781,4.59238281 31.7189453,5.05205078 Z" id="Shape" fill="#9AE3FF"></path>
                <path d="M35.8856445,9.21875 L35.8856445,25.0520508 L16.7189453,25.0520508 L16.7189453,9.21875 C16.7203125,8.75908203 17.0925781,8.38671875 17.5522461,8.38544922 L35.0522461,8.38544922 C35.5120117,8.38671875 35.8842773,8.75908203 35.8856445,9.21875 Z" id="Shape" fill="#DBF5FF"></path>
                <circle id="Oval" fill="#9AE3FF" cx="27.5522461" cy="18.3854492" r="6.66669922"></circle>
                <circle id="Oval" fill="#9AE3FF" cx="27.5522461" cy="17.5520508" r="2.5"></circle>
                <path d="M30.8856445,22.9020508 L30.8856445,24.1520508 C28.8253906,25.3520508 26.2791992,25.3520508 24.2189453,24.1520508 L24.2189453,22.9020508 C24.3619141,21.1994141 25.8481445,19.9287109 27.5522461,20.0520508 C28.4114258,20.0401367 29.2459961,20.3390625 29.9022461,20.89375 C30.5132813,21.3829102 30.8739258,22.1194336 30.8856445,22.9020508 Z" id="Shape" fill="#9AE3FF"></path>
                <g fill="#FFFFFF" id="Shape">
                    <polygon points="2.55224609 17.5520508 2.55224609 16.71875 0.885644531 16.71875 0.0522460938 16.71875 0.0522460938 17.5520508 0.0522460938 48.3854492 2.55224609 48.3854492"></polygon>
                    <path d="M11.7189453,0.0520507813 L9.21894531,0.0520507813 C8.75927734,0.0534179688 8.38691406,0.425683594 8.38564453,0.885351562 L8.38564453,25.0520508 L10.8856445,25.0520508 L10.8856445,0.885449219 C10.8869141,0.425683594 11.2592773,0.0534179687 11.7189453,0.0520507813 Z"></path>
                </g>
            </g>
            <g id="Group">
                <polygon id="Shape" fill="#FFFFFF" points="1.66689453 23.3333008 1.66689453 34.1666992 1.66689453 49.1666992 0.0001953125 49.1666992 0.0001953125 34.1666992 0.0001953125 23.3333008"></polygon>
                <g id="Shape">
                    <path d="M0.833496094,30.8333008 C1.05410156,30.8299805 1.26533203,30.7436523 1.42519531,30.5916016 C1.74746094,30.2629883 1.74746094,29.7369141 1.42519531,29.4083008 L1.30029297,29.3082031 C1.25380859,29.2765625 1.20332031,29.2512695 1.15009766,29.2329102 C1.10283203,29.2088867 1.05214844,29.1921875 0.999902344,29.1832031 C0.944921875,29.1738281 0.889257813,29.1682617 0.833496094,29.1665039 C0.612890625,29.1695313 0.4015625,29.2558594 0.241796875,29.4082031 C-0.0728515625,29.7399414 -0.0728515625,30.2598633 0.241796875,30.5915039 C0.321386719,30.6667969 0.414648438,30.7261719 0.516503906,30.7665039 C0.616796875,30.809375 0.724511719,30.8320313 0.833496094,30.8333008 Z" fill="#428DFF"></path>
                    <path d="M0.15234375,49.6467773 C0.308496094,49.8681641 0.5625,49.9999023 0.833496094,50 L40.5947266,50 C41.2989258,49.9988281 41.9268555,49.5561523 42.1645508,48.8932617 L49.9025391,27.2274414 C50.0850586,26.7169922 50.0078125,26.1496094 49.6955078,25.7064453 C49.3832031,25.2632812 48.8749023,24.9998047 48.3327148,25 L43.3335937,25 L43.3335937,18.3333008 C43.3325195,17.4132812 42.5870117,16.6676758 41.6668945,16.6666016 L40.0001953,16.6666016 L40.0001953,10 C39.9991211,9.07998047 39.2536133,8.334375 38.3334961,8.33330078 L35.8334961,8.33330078 L35.8334961,5.83330078 C35.8324219,4.91328125 35.0869141,4.16767578 34.1667969,4.16660156 L31.6667969,4.16660156 L31.6667969,1.66660156 C31.6658203,0.746582031 30.9202148,0.00107421875 30.0001953,0 L10.0001953,0 C9.08017578,0.00107421875 8.33457031,0.746582031 8.33349609,1.66669922 L8.33349609,16.6666992 L0.833496094,16.6666992 C0.783007812,16.671875 0.733203125,16.6819336 0.684667969,16.6966797 C0.638867187,16.6995117 0.593359375,16.7063477 0.548632812,16.7170898 C0.542089844,16.7195312 0.537988281,16.725 0.531542969,16.7274414 C0.472753906,16.7542969 0.417480469,16.7879883 0.366699219,16.8279297 C0.328222656,16.849707 0.291503906,16.8744141 0.25703125,16.9019531 C0.221191406,16.9420898 0.189453125,16.9857422 0.162304687,17.0321289 C0.129101562,17.0725586 0.0998046875,17.1160156 0.0748046875,17.1619141 C0.06015625,17.2052734 0.0490234375,17.2498047 0.0416015625,17.2950195 C0.0220703125,17.3547852 0.00966796875,17.4166992 0.00439453125,17.4792969 C0.00419921875,17.4865234 0.0001953125,17.4925781 0.0001953125,17.4999023 L0.0001953125,26.6666016 C0.0001953125,27.1268555 0.373339844,27.4999023 0.833496094,27.4999023 C1.29365234,27.4999023 1.66679687,27.1268555 1.66679687,26.6666016 L1.66679687,22.2305664 L3.14667969,26.3003906 C3.42119141,27.0552734 4.19521484,27.5070313 4.9875,27.3746094 L7.90507812,26.8883789 L1.66679687,44.3556641 L1.66679687,33.3333008 C1.66679687,32.8730469 1.29365234,32.5 0.833496094,32.5 C0.373339844,32.5 0.0001953125,32.8730469 0.0001953125,33.3333008 L0.0001953125,49.1666016 L0.005859375,49.1666016 C0.00380859375,49.3379883 0.0549804687,49.5057617 0.15234375,49.6467773 Z M41.6668945,18.3333008 L41.6668945,25 L40.0001953,25 L40.0001953,18.3333008 L41.6668945,18.3333008 Z M38.3334961,10 L38.3334961,25 L33.037207,25 C35.5147461,23.0051758 36.4644531,19.6644531 35.4068359,16.6645508 C34.3492187,13.6646484 31.5143555,11.6583008 28.3335937,11.6583008 C25.152832,11.6583008 22.3178711,13.6647461 21.2603516,16.6645508 C20.2027344,19.6643555 21.1524414,23.0050781 23.6299805,25 L18.3336914,25 L18.3336914,10 L38.3334961,10 Z M32.4547852,23.2908203 C32.346875,22.4149414 31.9098633,21.6128906 31.2323242,21.0473633 C31.0673828,20.9073242 30.8914062,20.7808594 30.7061523,20.6691406 C31.9952148,19.3634766 31.9868164,17.2615234 30.6874023,15.9661133 C29.3879883,14.6707031 27.2860352,14.6688477 25.984375,15.9620117 C24.6827148,17.2550781 24.6706055,19.3570313 25.9574219,20.6649414 C25.0049805,21.2274414 24.3620117,22.1945313 24.2117187,23.290332 C22.5416016,21.6226563 22.040918,19.1128906 22.9433594,16.9320313 C23.8458008,14.7511719 25.9735352,13.3290039 28.3336914,13.3291016 C30.6938477,13.3291992 32.8214844,14.7515625 33.7237305,16.9325195 C34.6259766,19.1134766 34.1251953,21.6233398 32.4547852,23.2908203 Z M26.6668945,18.3333008 C26.6668945,17.412793 27.4130859,16.6666016 28.3335937,16.6666016 C29.2541016,16.6666016 30.000293,17.412793 30.000293,18.3333008 C30.000293,19.2538086 29.2541016,20 28.3335937,20 C27.4134766,19.9989258 26.6678711,19.253418 26.6668945,18.3333008 Z M25.8334961,24.4291016 L25.8334961,23.6833008 C25.9819336,22.4443359 27.0911133,21.5496094 28.3334961,21.6666992 C28.9972656,21.6545898 29.6425781,21.8848633 30.1486328,22.3144531 C30.5710938,22.6446289 30.8225586,23.1472656 30.8334961,23.6833008 L30.8334961,24.4291016 C29.2538086,25.1902344 27.4132812,25.1902344 25.8334961,24.4291016 Z M34.1668945,8.33330078 L18.3334961,8.33330078 C17.4134766,8.334375 16.6678711,9.07988281 16.6667969,10 L16.6667969,25 L14.1667969,25 L14.1667969,5.83330078 L34.1668945,5.83330078 L34.1667969,8.33330078 L34.1668945,8.33330078 Z M10.0001953,1.66669922 L30.0001953,1.66669922 L30.0001953,4.16669922 L14.1668945,4.16669922 C13.246875,4.16777344 12.5012695,4.91328125 12.5001953,5.83339844 L12.5001953,25 L10.0001953,25 L10.0001953,1.66669922 Z M4.71337891,25.7308594 L2.0234375,18.3333984 L8.33359375,18.3333984 L8.33359375,25.1274414 L4.71337891,25.7308594 Z M9.75400391,26.6666992 L48.3327148,26.6666992 L40.5947266,48.3333008 L2.01601562,48.3333008 L9.75400391,26.6666992 Z" fill="#00B5FA"></path>
                    <path d="M34.1668945,28.3333008 C32.4895508,28.3296875 31.071875,29.5756836 30.8601562,31.2396484 C30.6484375,32.9036133 31.7087891,34.4649414 33.3335937,34.881543 L33.3335937,36.6666016 C33.3331055,37.1266602 32.9603516,37.4995117 32.500293,37.4999023 L20.8334961,37.4999023 C20.3734375,37.4994141 20.0005859,37.1266602 20.0001953,36.6666016 L20.0001953,34.881543 C21.6254883,34.4619141 22.6851562,32.8992188 22.4736328,31.234082 C22.2621094,29.5689453 20.8454102,28.3208008 19.1668945,28.3208008 C17.4883789,28.3208008 16.0716797,29.5689453 15.8601562,31.234082 C15.6486328,32.8992188 16.7083008,34.4619141 18.3335937,34.881543 L18.3335937,36.6666016 C18.3350586,38.0466797 19.4535156,39.1651367 20.8335937,39.1666016 L32.500293,39.1666016 C33.8803711,39.1651367 34.9988281,38.0466797 35.000293,36.6666016 L35.000293,34.881543 C36.6250977,34.4648438 37.6854492,32.9036133 37.4737305,31.2396484 C37.2618164,29.5756836 35.8442383,28.3297852 34.1668945,28.3333008 Z M17.5001953,31.6666992 C17.4960937,30.8568359 18.074707,30.1611328 18.8717773,30.0177734 C19.6688477,29.8744141 20.4537109,30.3248047 20.7319336,31.0854492 C21.0102539,31.8459961 20.7014648,32.696582 20.0000977,33.1015625 L20.0000977,32.5 C20.0000977,32.0397461 19.6269531,31.6666992 19.1667969,31.6666992 C18.706543,31.6666992 18.3334961,32.0397461 18.3334961,32.5 L18.3334961,33.1014648 C17.8197266,32.8061523 17.5021484,32.259375 17.5001953,31.6666992 Z M35.0001953,33.1014648 L35.0001953,32.5 C35.0001953,32.0397461 34.6270508,31.6666992 34.1668945,31.6666992 C33.7067383,31.6666992 33.3335937,32.0397461 33.3335937,32.5 L33.3335937,33.1014648 C32.6802734,32.7243164 32.3618164,31.9553711 32.5570312,31.2267578 C32.7522461,30.4981445 33.4125977,29.9915039 34.1668945,29.9915039 C34.9211914,29.9915039 35.581543,30.4981445 35.7767578,31.2267578 C35.9719727,31.9553711 35.6535156,32.7243164 35.0001953,33.1014648 Z" fill="#00B5FA"></path>
                </g>
            </g>
        </g>
    </g>
</svg>