<?xml version="1.0" encoding="UTF-8"?>
<svg width="50px" height="50px" viewBox="0 0 50 50" version="1.1" xmlns="http://www.w3.org/2000/svg" xmlns:xlink="http://www.w3.org/1999/xlink">
    <!-- Generator: Sketch 50.2 (55047) - http://www.bohemiancoding.com/sketch -->
    <title>Registrations@3x</title>
    <desc>Created with Sketch.</desc>
    <defs></defs>
    <g id="Page-1" stroke="none" stroke-width="1" fill="none" fill-rule="evenodd">
        <g id="Registrations" fill-rule="nonzero">
            <g id="Group" transform="translate(0.779727, 0.779727)">
                <path d="M48.2957115,15.8552632 C48.2936647,24.5818713 41.219883,31.6557505 32.4932749,31.6576998 C32.0773879,31.6576998 31.6532164,31.6410331 31.2457115,31.6077973 C23.0278752,30.9573099 16.6908382,24.0987329 16.6908382,15.8552632 C16.6908382,7.61179337 23.0278752,0.75331384 31.245614,0.102729045 C31.6531189,0.0694931774 32.0772904,0.0528265107 32.4931774,0.0528265107 C41.219883,0.0548732943 48.2936647,7.12865497 48.2957115,15.8552632 Z" id="Shape" fill="#9AE3FF"></path>
                <ellipse id="Oval" fill="#DBF5FF" cx="31.245614" cy="15.8553606" rx="14.5548733" ry="15.7525341"></ellipse>
                <path d="M28.3346979,19.8391813 L28.3346979,22.0431774 C28.3344055,22.8726121 28.0053606,23.6681287 27.4197856,24.2555556 C26.9768031,24.7015595 26.6758285,25.2688109 26.5547758,25.8856725 C26.1603314,27.6008772 25.4031189,29.2116959 24.3341131,30.6097466 C24.2327485,30.7502924 24.1774854,30.9188109 24.1761209,31.0921053 L24.1761209,33.6787524 C24.1733918,33.8246589 24.2108187,33.9685185 24.2842105,34.0946394 L24.1761209,34.9846004 L18.354191,37.4797271 L12.5322612,34.9846004 L12.4241715,34.0946394 C12.4976608,33.9685185 12.5349903,33.8246589 12.5322612,33.6787524 L12.5322612,31.0921053 C12.5307992,30.9188109 12.4756335,30.7502924 12.374269,30.6097466 C11.3052632,29.2115984 10.5480507,27.6007797 10.1536062,25.8856725 C10.0325536,25.2688109 9.73157895,24.7015595 9.28859649,24.2555556 C8.70302144,23.6681287 8.37407407,22.8726121 8.37368421,22.0431774 L8.37368421,19.0906433 C8.37417154,18.6053606 8.48810916,18.1268031 8.70633528,17.6933723 L8.87270955,17.3440546 C9.09093567,16.9106238 9.20487329,16.4320663 9.20536062,15.9467836 L9.20536062,11.6967836 C9.20487329,9.93196881 9.90575049,8.23927875 11.1536062,6.991423 C12.401462,5.74356725 14.094152,5.04269006 15.8589669,5.04317739 L20.8492203,5.04317739 C22.7721248,5.04044834 24.6017544,5.87183236 25.864425,7.32202729 L28.3346979,19.8391813 Z" id="Shape" fill="#DBF5FF"></path>
                <g transform="translate(0.000000, 4.970760)" fill="#9AE3FF" id="Shape">
                    <path d="M17.1066277,31.9767057 L18.354191,32.5089669 L24.1761209,30.0138402 L24.2842105,29.1238791 C24.2107212,28.9977583 24.1733918,28.8538986 24.1761209,28.7079922 L24.1761209,26.121345 C24.1775828,25.9480507 24.2327485,25.7795322 24.3341131,25.6389864 C25.4031189,24.2408382 26.1603314,22.6300195 26.5547758,20.9149123 C26.6758285,20.2980507 26.9768031,19.7307992 27.4197856,19.2847953 C28.0053606,18.6973684 28.334308,17.9018519 28.3346979,17.0724172 L28.3346979,14.119883 C28.3342105,13.6346004 28.2202729,13.1560429 28.0020468,12.7226121 L27.8356725,12.3732943 C27.6174464,11.9398635 27.5035088,11.461306 27.5030214,10.9760234 L27.5030214,6.72602339 C27.5035088,4.96120858 26.8026316,3.26851852 25.5547758,2.02066277 C24.3068226,0.772709552 22.61423,0.0719298246 20.8494152,0.072417154 L18.3542885,0.072417154 C20.1191033,0.0719298246 21.8117934,0.772807018 23.0596491,2.02066277 C24.3075049,3.26851852 25.0083821,4.96120858 25.0078947,6.72602339 L25.0078947,10.9760234 C25.0083821,11.461306 25.1223197,11.9398635 25.3405458,12.3732943 L25.5069201,12.7226121 C25.7251462,13.1560429 25.8390838,13.6346004 25.8395712,14.119883 L25.8395712,17.0724172 C25.8392788,17.9018519 25.5102339,18.6973684 24.9246589,19.2847953 C24.4816764,19.7307992 24.1807018,20.2980507 24.0596491,20.9149123 C23.6652047,22.630117 22.9079922,24.2409357 21.8389864,25.6389864 C21.7376218,25.7795322 21.6823587,25.9480507 21.6809942,26.121345 L21.6809942,28.7079922 C21.6782651,28.8538986 21.715692,28.9977583 21.7890838,29.1238791 L21.6809942,30.0138402 L17.1066277,31.9767057 Z"></path>
                    <path d="M36.6517544,39.9611111 L36.6517544,43.3212476 L0.0565302144,43.3212476 L0.0565302144,39.9611111 C0.0573099415,37.9164717 1.13070175,36.0222222 2.88430799,34.9708577 L8.37358674,31.6772904 L8.63976608,31.5192982 L28.0685185,31.5192982 L28.3346979,31.6772904 L33.8239766,34.9708577 C35.5775828,36.0221248 36.6509747,37.9164717 36.6517544,39.9611111 Z"></path>
                </g>
                <path d="M34.1566277,44.9318713 L34.1566277,48.2920078 L0.0565302144,48.2920078 L0.0565302144,44.9318713 C0.0573099415,42.887232 1.13070175,40.9929825 2.88430799,39.9416179 L8.37358674,36.6480507 L8.63976608,36.4900585 L25.5733918,36.4900585 L25.8395712,36.6480507 L31.3288499,39.9416179 C33.0824561,40.992885 34.155848,42.887232 34.1566277,44.9318713 Z" id="Shape" fill="#DBF5FF"></path>
                <g transform="translate(8.576998, 34.015595)" fill="#FFFFFF" id="Shape">
                    <path d="M9.77719298,2.63245614 L6.45038986,5.95925926 L0.0628654971,2.47436647 L3.54775828,0.378460039 C3.67270955,0.307504873 3.77621832,0.203996101 3.84717349,0.0790448343 L3.95526316,0.137231969 L9.77719298,2.63245614 Z"></path>
                    <path d="M19.4915205,2.47446394 L13.1039961,5.95935673 L9.77719298,2.63255361 L15.5991228,0.137426901 L15.7072125,0.0792397661 C15.7781676,0.204288499 15.8816764,0.307699805 16.0066277,0.378654971 L19.4915205,2.47446394 Z"></path>
                </g>
                <polygon id="Shape" fill="#DBF5FF" points="21.6809942 48.2920078 15.0272904 48.2920078 17.5224172 41.6383041 19.1858674 41.6383041"></polygon>
                <polygon id="Shape" fill="#DBF5FF" points="17.5224172 41.6383041 15.0272904 48.2920078 8.37368421 36.6480507 8.63976608 36.4900585 15.0272904 39.9748538 15.7425926 39.2595517"></polygon>
                <polygon id="Shape" fill="#DBF5FF" points="20.965692 39.2595517 19.1858674 41.6383041 17.5224172 41.6383041 15.7425926 39.2595517 18.354191 36.6480507"></polygon>
                <g fill="#FFFFFF" id="Shape">
                    <polygon points="28.3346979 36.6480507 21.6809942 48.2920078 19.1858674 41.6383041 20.965692 39.2595517 21.6809942 39.9748538 28.0685185 36.4900585"></polygon>
                    <path d="M2.55165692,44.9318713 C2.55243665,42.887232 3.62582846,40.9929825 5.3794347,39.9416179 L10.8687135,36.6480507 L11.1348928,36.4900585 L14.6196881,34.394152 C14.8751462,34.247271 15.0310916,33.9735867 15.027193,33.6788499 L15.027193,31.0922027 C15.025731,30.9189084 14.9705653,30.7503899 14.8692008,30.6098441 C13.8001949,29.2117934 13.0429825,27.6009747 12.648538,25.88577 C12.5274854,25.2689084 12.2265107,24.7016569 11.7835283,24.255653 C11.1979532,23.6682261 10.8690058,22.8727096 10.868616,22.0432749 L10.868616,19.0906433 C10.8691033,18.6053606 10.9830409,18.1268031 11.2012671,17.6933723 L11.3676413,17.3440546 C11.5858674,16.9106238 11.6998051,16.4320663 11.7002924,15.9467836 L11.7002924,11.6967836 C11.6998051,9.93196881 12.4006823,8.23927875 13.648538,6.991423 C14.8964912,5.74346979 16.5890838,5.04269006 18.3538986,5.04317713 L15.8587719,5.04317739 C14.0939571,5.04269006 12.4012671,5.74356725 11.1534113,6.991423 C9.90545809,8.23937622 9.20467836,9.93196881 9.20516569,11.6967836 L9.20516569,15.9467836 C9.20467836,16.4320663 9.09074074,16.9106238 8.87251462,17.3440546 L8.70614035,17.6933723 C8.48791423,18.1268031 8.37397661,18.6053606 8.37348928,19.0906433 L8.37348928,22.0431774 C8.37378168,22.8726121 8.70282651,23.6681287 9.28840156,24.2555556 C9.73138402,24.7015595 10.0323587,25.2688109 10.1534113,25.8856725 C10.5478558,27.6008772 11.3050682,29.2116959 12.3740741,30.6097466 C12.4754386,30.7502924 12.5306043,30.9188109 12.5320663,31.0921053 L12.5320663,33.6787524 C12.5359649,33.9733918 12.3800195,34.247076 12.1245614,34.3940546 L8.63976608,36.489961 L8.37358674,36.6479532 L2.88430799,39.9415205 C1.13070175,40.992885 0.0572124756,42.8871345 0.0565302144,44.9317739 L0.0565302144,48.2919103 L2.55165692,48.2919103 L2.55165692,44.9318713 Z"></path>
                    <path d="M32.4931774,0.0528265107 C32.0772904,0.0528265107 31.6531189,0.0694931774 31.245614,0.102729045 C27.3256335,0.409259259 23.6622807,2.17163743 20.9761209,5.04307992 L23.344347,5.04307992 C23.3850877,5.04307992 23.4244639,5.04844055 23.4649123,5.04912281 C26.1345029,2.19415205 29.7707602,0.434307992 33.6661793,0.11208577 C33.2775828,0.0834307992 32.8891813,0.0528265107 32.4931774,0.0528265107 Z"></path>
                </g>
            </g>
            <g id="Group">
                <polygon id="Shape" fill="#FFFFFF" points="0.83625731 48.239961 11.648538 48.239961 37.4314815 48.239961 37.4314815 49.9034113 11.648538 49.9034113 0.83625731 49.9034113"></polygon>
                <g id="Shape">
                    <path d="M8.08050682,49.6621832 C8.15555556,49.5827485 8.21491228,49.4896686 8.25516569,49.3880117 C8.29785575,49.2879142 8.32046784,49.1804094 8.32173489,49.0716374 C8.32037037,48.7353801 8.11744639,48.4326511 7.80692008,48.3037037 C7.4962963,48.1747563 7.13869396,48.2446394 6.89951267,48.4810916 L6.79961014,48.6057505 C6.76803119,48.6521442 6.74278752,48.7025341 6.72446394,48.755653 C6.70048733,48.8028265 6.68382066,48.8533138 6.67495127,48.9054581 C6.66559454,48.9604288 6.66003899,49.0158869 6.6582846,49.0716374 C6.66130604,49.2918129 6.74746589,49.502729 6.89951267,49.6621832 C7.23050682,49.9762183 7.7494152,49.9762183 8.08050682,49.6621832 Z" fill="#428DFF"></path>
                    <path d="M33.4317739,0.00516569201 C33.2763158,-0.00341130604 33.1203704,-0.00136452242 32.9652047,0.0114035088 C32.9424951,0.0130604288 32.920078,0.0184210526 32.8973684,0.0203703704 C28.5734893,0.122807018 24.4596491,1.90584795 21.428655,4.99103314 L16.6388889,4.99103314 C12.5067251,4.99551657 9.1579922,8.34424951 9.15350877,12.4764133 L9.15350877,16.7283626 C9.15321637,17.0840156 9.07066277,17.4348928 8.9122807,17.7534113 L8.73927875,18.098538 C8.46549708,18.6484405 8.32261209,19.254191 8.32173489,19.8684211 L8.32173489,22.8248538 C8.32465887,23.8751462 8.74210526,24.8818713 9.48323587,25.6262183 C9.80750487,25.9553606 10.0273879,26.3730019 10.1151072,26.8267057 C10.5325536,28.6586745 11.3391813,30.3794347 12.4803119,31.8722222 L12.4762183,34.4607212 L3.23567251,40.0089669 C1.23810916,41.2164717 0.0137426901,43.3773879 0.00467836257,45.7115984 L0.00467836257,49.0717349 C0.00458089669,49.2923977 0.0921052632,49.5039961 0.248148148,49.6599415 C0.404191033,49.8159844 0.615789474,49.9035088 0.836354776,49.9034113 L4.16315789,49.9034113 C4.62251462,49.9034113 4.99483431,49.5309942 4.99483431,49.0717349 C4.99483431,48.6123782 4.62241715,48.2400585 4.16315789,48.2400585 L1.66803119,48.2400585 L1.66803119,45.7116959 C1.66237817,43.9574074 2.58440546,42.3307992 4.09249513,41.4346004 L8.85204678,38.5768031 L14.3738791,48.2400585 L10.8167641,48.2400585 C10.3574074,48.2400585 9.98508772,48.6124756 9.98508772,49.0717349 C9.98508772,49.5310916 10.3575049,49.9034113 10.8167641,49.9034113 L37.4314815,49.9034113 C37.6521442,49.9035088 37.8637427,49.8159844 38.0196881,49.6599415 C38.175731,49.5038986 38.2632554,49.2923002 38.2631579,49.0717349 L38.2631579,45.7115984 C38.2538986,43.3770955 37.0293372,41.2158869 35.031384,40.0081871 L25.7875244,34.4582846 L25.7875244,31.878655 C25.8606238,31.7779727 25.92154,31.6818713 25.9903509,31.5826511 C28.1197856,32.6280702 30.4512671,33.1974659 32.8229045,33.2512671 C32.9723197,33.2602339 33.1226121,33.2691033 33.2729045,33.2691033 C42.4251462,33.2654971 49.8548733,25.8682261 49.898538,16.7160819 C49.9422027,7.56393762 42.5835283,0.0961988304 33.4317739,0.00516569201 Z M44.9856725,25.9253411 C43.6189084,25.1961988 42.1705653,24.631384 40.6709552,24.2425926 C41.217154,22.0237817 41.5163743,19.7512671 41.562963,17.4666667 L48.2062378,17.4666667 C48.0374269,20.5523392 46.9117934,23.5088694 44.9856725,25.9253411 Z M19.5489279,41.5863548 L18.7189084,41.5863548 L17.620078,40.1177388 L19.1339181,38.6038986 L20.6477583,40.1177388 L19.5489279,41.5863548 Z M15.8070175,41.5863548 C16.0275828,41.5863548 16.2391813,41.4987329 16.3950292,41.3426901 L16.4317739,41.3059454 L17.3634503,42.5515595 L15.65,47.1208577 L11.0794347,39.1224172 L15.4089669,41.4847953 C15.5310916,41.551462 15.6679337,41.5863548 15.8070175,41.5863548 Z M18.8788499,43.2497076 L19.3888889,43.2497076 L21.2602339,48.239961 L17.0075049,48.239961 L18.8788499,43.2497076 Z M20.904191,42.551462 L21.8358674,41.305848 L21.8726121,41.3425926 C22.1333333,41.6035088 22.5347953,41.6614035 22.8586745,41.4846979 L27.1882066,39.1223197 L22.6176413,47.1207602 L20.904191,42.551462 Z M22.608577,39.7263158 L20.5904483,37.7080897 L24.9013645,35.8605263 C24.9138402,35.8682261 24.9229045,35.8795322 24.935575,35.8869396 L27.1779727,37.2331384 L22.608577,39.7263158 Z M34.1046784,23.3049708 L34.1046784,17.4667641 L39.8997076,17.4667641 C39.854191,19.6224172 39.5702729,21.7664717 39.0532164,23.8597466 C37.4226121,23.5335283 35.7669591,23.3479532 34.1046784,23.3049708 Z M29.5277778,18.0961988 L29.3564327,17.755848 C29.3152047,17.6618908 29.2803119,17.5653021 29.2520468,17.4666667 L32.4412281,17.4666667 L32.4412281,23.308577 C31.5867446,23.3319688 30.7310916,23.3854776 29.8804094,23.4803119 C29.9207602,23.2640351 29.9426901,23.0447368 29.9461014,22.8247563 L29.9461014,19.8683236 C29.9451267,19.2534113 29.8019493,18.6468811 29.5277778,18.0961988 Z M34.1046784,15.8033138 L34.1046784,9.95867446 C35.7667641,9.91754386 37.4221248,9.73304094 39.0525341,9.40721248 C39.570078,11.501462 39.854191,13.6464912 39.8997076,15.8033138 L34.1046784,15.8033138 Z M34.1046784,8.29298246 L34.1046784,1.79775828 C35.8555556,2.33499025 37.5064327,4.53148148 38.5999025,7.80185185 C37.1175439,8.08888889 35.6140351,8.25321637 34.1046784,8.29298246 Z M32.4412281,8.29230019 C30.931384,8.25048733 29.4275828,8.08557505 27.9446394,7.79912281 C29.0329435,4.54074074 30.6798246,2.34834308 32.4412281,1.80136452 L32.4412281,8.29230019 Z M26.5249513,6.82709552 C25.6692008,6.08421053 24.6554581,5.54590643 23.5607212,5.25292398 C25.1459064,3.88606238 27.0049708,2.87397661 29.0133528,2.28430799 C27.9195906,3.63810916 27.0769006,5.17660819 26.5249513,6.82709552 Z M32.4412281,9.95867446 L32.4412281,15.8034113 L29.114425,15.8034113 L29.114425,12.4766082 C29.1150097,11.4896686 28.9192982,10.5123782 28.5385965,9.60175439 C29.830117,9.80701754 31.1338207,9.92631579 32.4412281,9.95867446 Z M28.7862573,25.6246589 C28.891423,25.5108187 28.9896686,25.3908382 29.0804094,25.2652047 C30.1939571,25.1017544 31.3161793,25.0038012 32.4412281,24.9718324 L32.4412281,31.4710526 C30.8651072,30.9947368 29.3867446,29.1990253 28.2977583,26.4165692 C28.4046784,26.1218324 28.5709552,25.8523392 28.7862573,25.6246589 Z M34.1046784,31.4687135 L34.1046784,24.9667641 C35.6147173,25.0083821 37.1187135,25.1747563 38.6012671,25.46423 C37.5111111,28.7265107 35.8652047,30.9214425 34.1046784,31.4687135 Z M41.5630604,15.8033138 C41.5163743,13.518616 41.2172515,11.2461014 40.6710526,9.02719298 C42.1701754,8.63859649 43.6181287,8.07397661 44.9846004,7.34532164 C46.9090643,9.76267057 48.0347953,12.7183236 48.2061404,15.8034113 L41.5630604,15.8034113 L41.5630604,15.8033138 Z M43.8447368,6.07397661 C42.6894737,6.64980507 41.4769981,7.10272904 40.2270955,7.42534113 C39.6692982,5.56598441 38.7626706,3.8297271 37.5555556,2.30945419 C39.9319688,3.02270955 42.0934698,4.31647173 43.8447368,6.07397661 Z M11.7451267,26.4961988 C11.5926901,25.7212476 11.21423,25.0087719 10.6576023,24.4486355 C10.2285575,24.0169591 9.98693957,23.4336257 9.98508772,22.8250487 L9.98508772,19.868616 C9.98538012,19.512963 10.0679337,19.1620858 10.2263158,18.8435673 L10.3993177,18.4984405 C10.6730994,17.948538 10.8159844,17.342885 10.8168616,16.7285575 L10.8168616,12.4766082 C10.8207602,9.2628655 13.4250487,6.658577 16.6387914,6.65467836 L21.6290448,6.65467836 C23.3816764,6.65497076 25.0406433,7.44610136 26.1439571,8.80789474 C26.1476608,8.81510721 26.1535088,8.8208577 26.1575049,8.82807018 C26.1878168,8.8877193 26.2253411,8.94337232 26.2692008,8.99385965 C26.28577,9.01189084 26.3026316,9.02777778 26.3207602,9.04434698 C27.0544834,10.0384016 27.4505848,11.2412281 27.4509747,12.4767057 L27.4509747,16.728655 C27.4520468,17.3437622 27.5951267,17.9502924 27.8692982,18.5008772 L28.0406433,18.8412281 C28.1994152,19.1605263 28.2822612,19.5120858 28.2827485,19.8687135 L28.2827485,22.8251462 C28.2807992,23.4345029 28.0385965,24.0185185 27.608577,24.4503899 C27.0525341,25.0106238 26.6744639,25.7227096 26.5218324,26.4971735 C26.1464912,28.0992203 25.4352827,29.6033138 24.4352827,30.9099415 C24.2338207,31.1905458 24.1251462,31.5269981 24.124269,31.8724172 L24.124269,34.3846979 L19.1340156,36.5231969 L14.1437622,34.3846979 L14.1437622,31.8724172 C14.1422027,31.5234893 14.0314815,31.1838207 13.8269981,30.9009747 C12.8292398,29.5962963 12.1197856,28.0950292 11.7451267,26.4961988 Z M13.3208577,35.8934698 C13.337232,35.8840156 13.3488304,35.8696881 13.3647173,35.8598441 L17.6773879,37.7081871 L15.6592593,39.7264133 L11.0897661,37.2332359 L13.3208577,35.8934698 Z M36.5998051,45.7115984 L36.5998292,48.239961 L23.8938596,48.239961 L29.415692,38.5766082 L34.1744639,41.4336257 C35.6829435,42.3300195 36.6052632,43.9569201 36.5998051,45.7115984 Z M27.5419103,28.7809942 C27.9489279,29.5651072 28.4410331,30.3019493 29.0093567,30.9783626 C28.2777778,30.7633528 27.5638402,30.4918129 26.874269,30.1663743 C27.122807,29.7175439 27.345614,29.2549708 27.5419103,28.7809942 Z M37.5519493,30.9615984 C38.761501,29.4418129 39.6694932,27.7049708 40.227193,25.8444444 C41.477193,26.167154 42.6898635,26.6202729 43.8452242,27.1961988 C42.0927875,28.9546784 39.929922,30.2488304 37.5519493,30.9615984 Z" fill="#00B5FA"></path>
                </g>
            </g>
        </g>
    </g>
</svg>