<?xml version="1.0" encoding="UTF-8"?>
<svg width="17px" height="17px" viewBox="0 0 17 17" version="1.1" xmlns="http://www.w3.org/2000/svg" xmlns:xlink="http://www.w3.org/1999/xlink">
    <!-- Generator: Sketch 50.2 (55047) - http://www.bohemiancoding.com/sketch -->
    <title>icon_06@3x</title>
    <desc>Created with Sketch.</desc>
    <defs></defs>
    <g id="Page-1" stroke="none" stroke-width="1" fill="none" fill-rule="evenodd">
        <g id="icon_06">
            <rect id="Rectangle-28-Copy-2" fill-opacity="0.01" fill="#FFFFFF" x="0" y="0" width="17" height="17"></rect>
            <g id="folder-(3)-copy" transform="translate(1.000000, 1.000000)" fill="#39535C" fill-rule="nonzero">
                <path d="M14.311935,6.33874294 C14.2540678,6.27127119 14.169548,6.23237288 14.080226,6.23237288 L0.305183616,6.23237288 C0.216341808,6.23237288 0.131822034,6.27103107 0.0739548023,6.33826271 C0.0158474576,6.40549435 -0.0100847458,6.49457627 0.00336158192,6.58317797 L1.18423729,13.8972599 C1.20752825,14.0473305 1.33430791,14.1561017 1.48581921,14.1561017 L12.8993503,14.1561017 C13.0511017,14.1561017 13.1778814,14.0473305 13.2011723,13.8965395 L14.3818079,6.58413842 C14.3954944,6.49577684 14.3700424,6.4064548 14.311935,6.33874294 Z" id="Shape"></path>
                <path d="M1.92090395,3.59112994 L12.4858757,3.59112994 L12.4858757,5.75214689 L13.4463277,5.75214689 L13.4463277,1.85439266 C13.4463277,1.62028249 13.2559181,1.42987288 13.0218079,1.42987288 L5.65850282,1.42987288 L5.06182203,0.435564972 C4.98570621,0.308305085 4.84620056,0.22930791 4.69781073,0.22930791 L1.38497175,0.22930791 C1.15086158,0.229548023 0.960451977,0.419957627 0.960451977,0.653827684 L0.960451977,5.75190678 L1.92090395,5.75190678 L1.92090395,3.59112994 Z" id="Shape"></path>
            </g>
        </g>
    </g>
</svg>