<?xml version="1.0" encoding="UTF-8"?>
<svg width="17px" height="17px" viewBox="0 0 17 17" version="1.1" xmlns="http://www.w3.org/2000/svg" xmlns:xlink="http://www.w3.org/1999/xlink">
    <!-- Generator: Sketch 50.2 (55047) - http://www.bohemiancoding.com/sketch -->
    <title>icon_02@3x</title>
    <desc>Created with Sketch.</desc>
    <defs></defs>
    <g id="Page-1" stroke="none" stroke-width="1" fill="none" fill-rule="evenodd">
        <g id="icon_02">
            <rect id="Rectangle-28-Copy" fill-opacity="0.01" fill="#FFFFFF" x="0" y="0" width="17" height="17"></rect>
            <g id="clock-(7)-copy" transform="translate(1.000000, 2.000000)" fill="#39535C" fill-rule="nonzero">
                <path d="M6.99976667,0 C3.13394667,0 0,3.13404 0,6.99976667 C0,10.8654933 3.13394667,13.9997667 6.99976667,13.9997667 C10.8655867,13.9997667 13.9997667,10.8654933 13.9997667,6.99976667 C13.9997667,3.13404 10.8655867,0 6.99976667,0 Z M10.02596,8.33112 L7.05833333,8.33112 C7.0483,8.33112 7.03896667,8.32869333 7.02902667,8.32832 C7.01908667,8.32878667 7.0098,8.33112 6.99972,8.33112 C6.73236667,8.33112 6.5156,8.11435333 6.5156,7.847 L6.5156,2.90495333 C6.5156,2.6376 6.73236667,2.42083333 6.99972,2.42083333 C7.26707333,2.42083333 7.48384,2.6376 7.48384,2.90495333 L7.48384,7.36288 L10.0257733,7.36288 C10.2931267,7.36288 10.5098933,7.57964667 10.5098933,7.847 C10.5098933,8.11435333 10.2933133,8.33112 10.02596,8.33112 Z" id="Shape"></path>
            </g>
        </g>
    </g>
</svg>