<?xml version="1.0" encoding="UTF-8"?>
<svg width="17px" height="17px" viewBox="0 0 17 17" version="1.1" xmlns="http://www.w3.org/2000/svg" xmlns:xlink="http://www.w3.org/1999/xlink">
    <!-- Generator: Sketch 50.2 (55047) - http://www.bohemiancoding.com/sketch -->
    <title>icon_04@3x</title>
    <desc>Created with Sketch.</desc>
    <defs></defs>
    <g id="Page-1" stroke="none" stroke-width="1" fill="none" fill-rule="evenodd">
        <g id="icon_04">
            <g id="Group-15">
                <rect id="Rectangle-28-Copy-5" fill-opacity="0.01" fill="#FFFFFF" x="0" y="0" width="17" height="17"></rect>
                <path d="M14.5322176,8.03403975 L7.03981172,8.03403975 C6.78810669,7.04506067 5.78232008,6.44738703 4.79331381,6.69909205 C4.13743933,6.8660251 3.62529916,7.37816527 3.45836611,8.03403975 L2.46416527,8.03403975 C2.20780962,8.03403975 2,8.24184937 2,8.49820502 C2,8.75456067 2.20780962,8.9623431 2.46416527,8.9623431 L3.45839331,8.9623431 C3.71009833,9.95132218 4.71588494,10.5489958 5.70489121,10.2972908 C6.36076569,10.1303577 6.87290586,9.61821757 7.03983891,8.9623431 L14.5322176,8.9623431 C14.7885732,8.9623431 14.9963828,8.75453347 14.9963828,8.49817782 C14.9963828,8.24182218 14.7885732,8.03403975 14.5322176,8.03403975 Z" id="Shape" fill="#39535C" fill-rule="nonzero"></path>
                <path d="M14.5322176,3.39246862 L13.0738515,3.39246862 C12.8221464,2.40348954 11.8163598,1.8058159 10.8273536,2.05752092 C10.1714791,2.22445397 9.65933891,2.73659414 9.49240586,3.39246862 L2.46416527,3.39246862 C2.20780962,3.39246862 2,3.60027824 2,3.85663389 C2,4.11298954 2.20780962,4.32079916 2.46416527,4.32079916 L9.49240586,4.32079916 C9.74411088,5.30977824 10.7498975,5.90745188 11.7389038,5.65574686 C12.3947782,5.48881381 12.9069184,4.97667364 13.0738515,4.32079916 L14.5322176,4.32079916 C14.7885732,4.32079916 14.9963828,4.11298954 14.9963828,3.85663389 C14.9963828,3.60027824 14.7885732,3.39246862 14.5322176,3.39246862 Z" id="Shape" fill="#39535C" fill-rule="nonzero"></path>
                <path d="M14.5322176,12.6756109 L12.1455209,12.6756109 C11.8938159,11.6866318 10.8880293,11.0889582 9.89902301,11.3406632 C9.24314854,11.5075962 8.73100837,12.0197364 8.56407531,12.6756109 L2.46416527,12.6756109 C2.20780962,12.6756109 2,12.8834205 2,13.139749 C2,13.3960774 2.20780962,13.6039142 2.46416527,13.6039142 L8.56410251,13.6039142 C8.81580753,14.5928933 9.82159414,15.1905669 10.8106004,14.9388619 C11.4664749,14.7719289 11.9786151,14.2597887 12.1455481,13.6039142 L14.5322176,13.6039142 C14.7885732,13.6039142 14.9963828,13.3961046 14.9963828,13.139749 C14.9963828,12.8833933 14.7885732,12.6756109 14.5322176,12.6756109 Z" id="Shape" fill="#39535C" fill-rule="nonzero"></path>
            </g>
            <g id="equalizer-copy" transform="translate(2.000000, 2.000000)"></g>
        </g>
    </g>
</svg>