<?xml version="1.0" encoding="UTF-8"?>
<svg width="17px" height="17px" viewBox="0 0 17 17" version="1.1" xmlns="http://www.w3.org/2000/svg" xmlns:xlink="http://www.w3.org/1999/xlink">
    <!-- Generator: Sketch 50.2 (55047) - http://www.bohemiancoding.com/sketch -->
    <title>icon_01@3x</title>
    <desc>Created with Sketch.</desc>
    <defs></defs>
    <g id="Page-1" stroke="none" stroke-width="1" fill="none" fill-rule="evenodd">
        <g id="icon_01">
            <rect id="Rectangle-28" fill-opacity="0.01" fill="#FFFFFF" x="0" y="0" width="17" height="17"></rect>
            <g id="chat-(5)-copy-2" transform="translate(0.000000, 1.000000)" fill="#39535C" fill-rule="nonzero">
                <path d="M10.1792222,0.000706444444 L1.445,0.000706444444 C0.645401222,0.000706444444 0,0.646107667 0,1.44570644 L0,7.22570644 C0,8.025241 0.645401222,8.67070644 1.445,8.67070644 L1.92666667,8.67070644 L1.92666667,10.1157064 C1.92666667,10.4636946 2.28698544,10.7157026 2.63953333,10.5395731 C2.64916667,10.5299398 2.66846544,10.5299398 2.67809878,10.5202743 C5.32777922,8.743406 4.73394844,9.13959289 5.32726544,8.747741 C5.4043,8.69957433 5.491,8.67070644 5.58733333,8.67070644 L10.1792222,8.67070644 C10.978821,8.67070644 11.6242222,8.025241 11.6242222,7.22570644 L11.6242222,1.44570644 C11.6242222,0.646107667 10.978821,0.000706444444 10.1792222,0.000706444444 Z M6.32588889,5.78070644 L2.40833333,5.78070644 C1.77340033,5.78070644 1.77079933,4.81737311 2.40833333,4.81737311 L6.32588889,4.81737311 C6.96082189,4.81737311 6.96342289,5.78070644 6.32588889,5.78070644 Z M9.21588889,3.85403978 L2.40833333,3.85403978 C1.77340033,3.85403978 1.77079933,2.89070644 2.40833333,2.89070644 L9.21588889,2.89070644 C9.85082189,2.89070644 9.85342289,3.85403978 9.21588889,3.85403978 Z" id="Shape"></path>
                <path d="M14.9958889,3.85403978 L12.5875556,3.85403978 L12.5875556,7.22570644 C12.5875556,8.55510644 11.5086222,9.63403978 10.1792222,9.63403978 L5.73183333,9.63403978 L4.81666667,10.2409398 L4.81666667,11.0790398 C4.81666667,11.8785743 5.46206789,12.5240398 6.26166667,12.5240398 L10.9980234,12.5240398 L13.7627901,14.3736077 C14.1401599,14.5831327 14.5142222,14.328331 14.5142222,13.9690398 L14.5142222,12.5240398 L14.9958889,12.5240398 C15.7954877,12.5240398 16.4408889,11.8785743 16.4408889,11.0790398 L16.4408889,5.29903978 C16.4408889,4.49947311 15.7954877,3.85403978 14.9958889,3.85403978 Z" id="Shape"></path>
            </g>
        </g>
    </g>
</svg>